<svg aria-hidden="true" style="width:0;height:0;position:absolute;overflow:hidden" xmlns="http://www.w3.org/2000/svg"><defs><symbol id="icon-social-button" viewBox="0 0 33 32"><path fill="#fff" style="fill:var(--color1,#fff)" d="M17.149 0c8.837 0 16 7.163 16 16s-7.163 16-16 16-16-7.163-16-16 7.163-16 16-16z"/><path fill="#001414" style="fill:var(--color2,#001414)" d="M25.149 9a1 1 0 1 1-2 0 1 1 0 0 1 2 0zM17.149 23a7 7 0 1 1 0-14 7 7 0 1 1 0 14zm0-2.333a4.667 4.667 0 0 0 0-9.334 4.667 4.667 0 0 0 0 9.334z"/></symbol><symbol id="icon-social-facebook" viewBox="0 0 33 32"><path fill="#fff" style="fill:var(--color1,#fff)" d="M17.149 0c8.837 0 16 7.163 16 16s-7.163 16-16 16-16-7.163-16-16 7.163-16 16-16z"/><path fill="#001414" style="fill:var(--color2,#001414)" d="M21.149 13.181h-2.952V11.52c0-.624.481-.769.821-.769h2.083V8.01l-2.868-.009c-3.185 0-3.909 2.045-3.909 3.353v1.827h-1.841v2.827h1.84v7.993h3.875v-7.993h2.613l.339-2.827z"/></symbol><symbol id="icon-social-youtube" viewBox="0 0 33 32"><path fill="#fff" style="fill:var(--color1,#fff)" d="M17.149 0c8.837 0 16 7.163 16 16s-7.163 16-16 16-16-7.163-16-16 7.163-16 16-16z"/><path fill="#001414" style="fill:var(--color2,#001414)" d="M23.4 10.987a1.958 1.958 0 0 1 1.415 1.351c.335 1.192.335 3.68.335 3.68s0 2.487-.333 3.679c-.185.657-.727 1.153-1.416 1.329-1.247.32-6.251.32-6.251.32s-5.003 0-6.251-.32c-.689-.176-1.231-.672-1.415-1.329-.333-1.192-.333-3.68-.333-3.68s0-2.487.333-3.679a1.967 1.967 0 0 1 1.4-1.348l.014-.003c1.249-.32 6.255-.32 6.255-.32s5.003 0 6.249.32zm-7.887 2.772v4.516l4.181-2.259-4.181-2.257z"/></symbol></defs></svg>